<?xml version="1.0" encoding="utf-8"?>
<!-- Generator: Adobe Illustrator 26.0.2, SVG Export Plug-In . SVG Version: 6.00 Build 0)  -->
<svg version="1.1" id="Calque_1" xmlns="http://www.w3.org/2000/svg" xmlns:xlink="http://www.w3.org/1999/xlink" x="0px" y="0px"
	 viewBox="0 0 81 81" style="enable-background:new 0 0 81 81;" xml:space="preserve">
<style type="text/css">
	.st0{fill:url(#Shape_00000106141821431828686460000007198648710370884994_);}
	.st1{fill:url(#Shape_00000132048917096806821140000017506392615418747038_);}
	.st2{fill:url(#Shape_00000018229952859274557490000011002200031438081937_);}
	.st3{fill-rule:evenodd;clip-rule:evenodd;fill:url(#Combined-Shape_00000094584909980157876080000014315628514338259359_);}
</style>
<g>
	<desc>Created with Sketch.</desc>
	<g id="Page-1_00000152977411613289574130000007645255551495284653_">
		<g id="logo_00000160184406951140993080000010452056909734275519_" transform="translate(-20.000000, -20.000000)">
			<g id="Group-28-Copy-5_00000022561181561884581390000015507384298751615364_" transform="translate(20.000000, 20.000000)">
				<g id="Group-27-Copy-3_00000031897125836456002940000017245506539958662568_">
					<g id="Group-25_00000021839301601557045250000002205222967857536145_">
						<g id="_x32__00000087398921747677176730000011273898702709578118_">
							
								<linearGradient id="Shape_00000097484512082025254560000012110439860680947340_" gradientUnits="userSpaceOnUse" x1="1.8951" y1="79.3817" x2="2.083" y2="79.2274" gradientTransform="matrix(147.7263 0 0 -198.7057 -256.4822 15796.3584)">
								<stop  offset="0" style="stop-color:#517DBF"/>
								<stop  offset="1" style="stop-color:#49C1F1"/>
							</linearGradient>
							
								<path id="Shape_00000163038296764386040680000004609162445582082727_" style="fill:url(#Shape_00000097484512082025254560000012110439860680947340_);" d="
								M37.04,1.44L1.41,37.04c-1.92,1.91-1.92,5.01,0,6.92l35.63,35.6c1.92,1.91,5.01,1.91,6.93,0l14.94-14.93
								c1.72-1.71,1.72-4.49,0-6.21c-1.72-1.71-4.5-1.71-6.21,0L41.37,69.75c-0.48,0.48-1.2,0.48-1.68,0L11.24,41.32
								c-0.48-0.48-0.48-1.2,0-1.68l28.45-28.43c0.48-0.48,1.2-0.48,1.68,0l11.33,11.32c1.72,1.71,4.5,1.71,6.21,0
								c1.72-1.71,1.72-4.49,0-6.21L43.97,1.39C42.05-0.48,38.95-0.46,37.04,1.44z"/>
							
								<linearGradient id="Shape_00000078740203841184439460000009259046788751936942_" gradientUnits="userSpaceOnUse" x1="1.9776" y1="79.5023" x2="1.9141" y2="79.0602" gradientTransform="matrix(147.7263 0 0 -198.7057 -256.4822 15796.3584)">
								<stop  offset="0" style="stop-color:#4BC2F1"/>
								<stop  offset="0.3786" style="stop-color:#4582C3"/>
								<stop  offset="1" style="stop-color:#365FAA"/>
							</linearGradient>
							
								<path id="Shape_00000168837289929448077610000014680853966765710782_" style="fill:url(#Shape_00000078740203841184439460000009259046788751936942_);" d="
								M37.04,1.44L1.41,37.04c-1.92,1.91-1.92,5.01,0,6.92l35.63,35.6c1.92,1.91,5.01,1.91,6.93,0l14.94-14.93
								c1.72-1.71,1.72-4.49,0-6.21c-1.72-1.71-4.5-1.71-6.21,0L41.37,69.75c-0.48,0.48-1.2,0.48-1.68,0L11.24,41.32
								c-0.48-0.48-0.48-1.2,0-1.68l28.45-28.43c1.19-1.02,3.12-3.1,5.97-3.58c2.11-0.36,4.43,0.43,6.93,2.38
								c-1.68-1.68-4.55-4.55-8.62-8.61C42.05-0.48,38.95-0.46,37.04,1.44z"/>
						</g>
						
							<linearGradient id="Shape_00000179625066663193958730000005570002476532192161_" gradientUnits="userSpaceOnUse" x1="3.69" y1="77.6622" x2="3.4741" y2="77.1308" gradientTransform="matrix(49.2049 0 0 -77.4363 -106.8583 6034.4668)">
							<stop  offset="0" style="stop-color:#F08070"/>
							<stop  offset="0.4147" style="stop-color:#EA4C5E"/>
							<stop  offset="1" style="stop-color:#E62C33"/>
						</linearGradient>
						
							<path id="Shape_00000152245990892802069340000011500572682092053636_" style="fill:url(#Shape_00000179625066663193958730000005570002476532192161_);" d="
							M62.36,55.12c1.72,1.71,4.5,1.71,6.21,0l11.02-11.01c1.92-1.91,1.92-5.01,0-6.92L68.47,26.12c-1.72-1.71-4.5-1.71-6.22,0.01
							c-1.72,1.71-1.72,4.49,0,6.21l7.51,7.5c0.48,0.48,0.48,1.2,0,1.68l-7.41,7.4C60.64,50.63,60.64,53.4,62.36,55.12z"/>
					</g>
					
						<linearGradient id="Combined-Shape_00000179618963416833255970000008740933869065938069_" gradientUnits="userSpaceOnUse" x1="4.7667" y1="75.7638" x2="4.6131" y2="75.1498" gradientTransform="matrix(47.2004 0 0 -47.1616 -180.2186 3597.4983)">
						<stop  offset="0" style="stop-color:#F18D7E"/>
						<stop  offset="0.5126" style="stop-color:#EA4C5E"/>
						<stop  offset="1" style="stop-color:#E62C33"/>
					</linearGradient>
					
						<ellipse id="Combined-Shape_00000018212502745028091510000017480099792564275385_" style="fill-rule:evenodd;clip-rule:evenodd;fill:url(#Combined-Shape_00000179618963416833255970000008740933869065938069_);" cx="40.68" cy="40.68" rx="9.62" ry="9.61"/>
				</g>
			</g>
		</g>
	</g>
</g>
</svg>
