<?xml version="1.0" encoding="utf-8"?>
<!-- Generator: Adobe Illustrator 26.0.2, SVG Export Plug-In . SVG Version: 6.00 Build 0)  -->
<svg version="1.1" id="Calque_1" xmlns="http://www.w3.org/2000/svg" xmlns:xlink="http://www.w3.org/1999/xlink" x="0px" y="0px"
	 viewBox="0 0 81 81" style="enable-background:new 0 0 81 81;" xml:space="preserve">
<style type="text/css">
	.st0{clip-path:url(#SVGID_00000134947367190698265870000018233190276046782644_);}
	.st1{fill:#2178BD;}
	.st2{fill:#FFFFFF;}
	.st3{clip-path:url(#SVGID_00000096749122402410268010000001391125194603311519_);}
	.st4{clip-path:url(#SVGID_00000016795695746885902430000003874091703725608880_);}
	.st5{clip-path:url(#SVGID_00000044142607479848443440000013879571190401763200_);}
	.st6{fill:#69A063;}
	.st7{fill-rule:evenodd;clip-rule:evenodd;fill:#343434;}
	.st8{fill-rule:evenodd;clip-rule:evenodd;fill:#69A063;}
	.st9{fill-rule:evenodd;clip-rule:evenodd;fill:url(#SVGID_00000093894663949763290620000002504808987844221371_);}
	.st10{clip-path:url(#SVGID_00000177475151944385373580000011969916275852524721_);}
	.st11{fill:url(#SVGID_00000183241849739814463100000007228853087536572818_);}
	.st12{clip-path:url(#SVGID_00000167368085866207566910000017694078641214934949_);}
	.st13{fill:url(#SVGID_00000088099354070976641310000008510213904156943036_);}
	.st14{fill:url(#SVGID_00000120523508388622252790000001164593420069248184_);}
	.st15{fill:url(#SVGID_00000042731010818855954590000013558160217146295446_);}
	.st16{fill:url(#SVGID_00000079464954682842879130000010755473720189855164_);}
	.st17{fill:url(#SVGID_00000065071369785530937460000016570197461450991753_);}
	.st18{fill:#020203;}
</style>
<g>
	<g>
		<defs>
			<rect id="SVGID_1_" y="15.05" width="81" height="50.91"/>
		</defs>
		<clipPath id="SVGID_00000041289939413504951040000003454857526053520804_">
			<use xlink:href="#SVGID_1_"  style="overflow:visible;"/>
		</clipPath>
		<g transform="translate(-231 0)" style="clip-path:url(#SVGID_00000041289939413504951040000003454857526053520804_);">
			<path class="st1" d="M243.14,32.01h-3.88v12.02h-1.59V32.01h-3.86v-1.42h9.32V32.01z M250.46,34.42l-4.42,11.14
				c-0.78,1.99-1.89,2.98-3.31,2.98c-0.4,0-0.73-0.05-0.99-0.12v-1.37c0.33,0.12,0.64,0.17,0.9,0.17c0.78,0,1.35-0.47,1.75-1.4
				l0.76-1.82l-3.74-9.58h1.7l2.6,7.38c0.02,0.09,0.09,0.33,0.19,0.73h0.05c0.02-0.14,0.09-0.38,0.19-0.71l2.72-7.4H250.46
				L250.46,34.42z M252.96,42.63h-0.05v5.8h-1.54V34.42h1.54v1.68h0.05c0.76-1.28,1.87-1.92,3.31-1.92c1.23,0,2.2,0.43,2.89,1.28
				c0.69,0.85,1.04,2.01,1.04,3.45c0,1.61-0.4,2.89-1.18,3.86c-0.78,0.97-1.85,1.44-3.19,1.44
				C254.62,44.27,253.65,43.72,252.96,42.63L252.96,42.63z M252.94,38.78v1.35c0,0.8,0.26,1.47,0.78,2.01
				c0.52,0.54,1.16,0.83,1.96,0.83c0.92,0,1.66-0.35,2.2-1.06c0.52-0.71,0.78-1.7,0.78-2.98c0-1.06-0.24-1.92-0.73-2.51
				c-0.5-0.62-1.16-0.9-2.01-0.9c-0.9,0-1.61,0.31-2.15,0.92C253.2,37.05,252.94,37.83,252.94,38.78L252.94,38.78z M269.62,39.6
				h-6.77c0.02,1.06,0.31,1.89,0.85,2.48c0.54,0.59,1.3,0.88,2.27,0.88c1.09,0,2.08-0.35,2.98-1.06v1.44
				c-0.85,0.62-1.96,0.92-3.34,0.92c-1.35,0-2.41-0.43-3.19-1.3c-0.78-0.88-1.16-2.11-1.16-3.67c0-1.49,0.43-2.72,1.28-3.64
				c0.85-0.95,1.89-1.42,3.15-1.42c1.25,0,2.22,0.4,2.91,1.23c0.69,0.8,1.04,1.94,1.04,3.38L269.62,39.6L269.62,39.6z M268.04,38.3
				c0-0.9-0.21-1.59-0.64-2.08c-0.43-0.5-1.02-0.73-1.75-0.73c-0.73,0-1.35,0.26-1.85,0.78c-0.5,0.52-0.83,1.21-0.95,2.03H268.04z
				 M270.38,43.56v-1.06c0.97,0.62,1.94,0.92,2.93,0.92c1.04,0,1.85-0.21,2.39-0.66c0.54-0.45,0.8-1.04,0.8-1.82
				c0-0.69-0.19-1.23-0.54-1.66c-0.36-0.4-1.16-0.97-2.37-1.68c-1.37-0.8-2.22-1.47-2.58-1.99c-0.35-0.54-0.54-1.16-0.54-1.85
				c0-0.95,0.38-1.75,1.11-2.41c0.73-0.66,1.73-0.99,2.96-0.99c0.8,0,1.61,0.14,2.39,0.4v0.97c-0.78-0.35-1.63-0.54-2.53-0.54
				c-0.92,0-1.63,0.24-2.18,0.69c-0.54,0.47-0.8,1.04-0.8,1.75c0,0.69,0.19,1.23,0.54,1.63c0.36,0.4,1.16,0.97,2.37,1.66
				c1.25,0.71,2.08,1.35,2.51,1.89c0.43,0.54,0.62,1.18,0.62,1.92c0,1.04-0.35,1.87-1.06,2.53c-0.71,0.66-1.73,0.97-3.03,0.97
				c-0.47,0-0.99-0.07-1.61-0.21C271.14,43.86,270.69,43.74,270.38,43.56L270.38,43.56z M285.45,43.6
				c-0.71,0.43-1.56,0.66-2.56,0.66c-1.3,0-2.37-0.45-3.17-1.35s-1.21-2.06-1.21-3.53c0-1.51,0.45-2.77,1.35-3.74
				c0.9-0.97,2.06-1.47,3.48-1.47c0.73,0,1.44,0.14,2.13,0.45v0.97c-0.69-0.43-1.44-0.64-2.25-0.64c-1.14,0-2.03,0.4-2.74,1.21
				c-0.71,0.8-1.04,1.87-1.04,3.15c0,1.25,0.33,2.25,0.97,3c0.64,0.76,1.49,1.14,2.53,1.14c0.97,0,1.8-0.26,2.51-0.76V43.6
				L285.45,43.6z M291.18,35.32c-0.28-0.21-0.62-0.31-1.02-0.31c-0.76,0-1.4,0.4-1.89,1.18c-0.52,0.78-0.76,1.89-0.76,3.34v4.52
				h-0.85v-9.63h0.85v2.13h0.05c0.21-0.73,0.57-1.3,1.04-1.7c0.47-0.4,1.02-0.62,1.66-0.62c0.35,0,0.69,0.05,0.95,0.17v0.92H291.18
				L291.18,35.32z M292.55,32.01c-0.19,0-0.36-0.07-0.5-0.21c-0.14-0.14-0.21-0.31-0.21-0.52c0-0.21,0.07-0.38,0.21-0.5
				c0.14-0.12,0.31-0.19,0.5-0.19c0.19,0,0.35,0.07,0.52,0.19c0.14,0.12,0.21,0.28,0.21,0.5c0,0.19-0.07,0.38-0.21,0.52
				C292.9,31.94,292.74,32.01,292.55,32.01z M292.12,44.03v-9.61h0.85v9.61H292.12z M295.93,42.33h-0.05v6.13h-0.85V34.42h0.85v1.99
				h0.05c0.35-0.71,0.83-1.25,1.47-1.63c0.64-0.38,1.35-0.57,2.11-0.57c1.23,0,2.18,0.43,2.86,1.25c0.69,0.85,1.02,1.99,1.02,3.43
				c0,1.61-0.4,2.91-1.18,3.9c-0.78,0.99-1.82,1.49-3.1,1.49C297.68,44.27,296.62,43.63,295.93,42.33z M295.89,38.75v1.21
				c0,0.97,0.31,1.8,0.9,2.48c0.62,0.69,1.4,1.04,2.39,1.04c0.97,0,1.77-0.43,2.39-1.25c0.62-0.85,0.92-1.94,0.92-3.31
				c0-1.21-0.28-2.15-0.85-2.86c-0.57-0.71-1.3-1.06-2.25-1.06c-1.11,0-1.99,0.38-2.6,1.14C296.17,36.88,295.89,37.74,295.89,38.75z
				 M308.61,43.89c-0.45,0.21-0.88,0.31-1.25,0.31c-1.42,0-2.13-0.85-2.13-2.56v-6.41h-1.73v-0.78h1.73v-2.51l0.43-0.14l0.43-0.14
				v2.79h2.53v0.78h-2.53v6.34c0,0.66,0.09,1.14,0.31,1.44c0.21,0.31,0.57,0.45,1.07,0.45c0.35,0,0.73-0.12,1.16-0.35V43.89
				L308.61,43.89z"/>
			<rect x="233.1" y="27.78" class="st2" width="77.07" height="22.13"/>
			<g>
				<defs>
					<rect id="SVGID_00000083780516822394098450000016422886378719207358_" x="245.21" y="16.49" width="52.57" height="48.03"/>
				</defs>
				<clipPath id="SVGID_00000124138211651681583640000003201504715763223453_">
					<use xlink:href="#SVGID_00000083780516822394098450000016422886378719207358_"  style="overflow:visible;"/>
				</clipPath>
				<g style="clip-path:url(#SVGID_00000124138211651681583640000003201504715763223453_);">
					<g>
						<defs>
							<rect id="SVGID_00000035501209850520947960000011911781613785863836_" x="245.21" y="16.49" width="52.57" height="48.03"/>
						</defs>
						<clipPath id="SVGID_00000119833183882752800270000001193032978732319650_">
							<use xlink:href="#SVGID_00000035501209850520947960000011911781613785863836_"  style="overflow:visible;"/>
						</clipPath>
						<g style="clip-path:url(#SVGID_00000119833183882752800270000001193032978732319650_);">
							<g>
								<defs>
									
										<rect id="SVGID_00000046316088464021077830000007151732619967442841_" x="245.21" y="16.49" width="52.57" height="48.03"/>
								</defs>
								<clipPath id="SVGID_00000121250643105414135630000001320564322626720924_">
									<use xlink:href="#SVGID_00000046316088464021077830000007151732619967442841_"  style="overflow:visible;"/>
								</clipPath>
								<g style="clip-path:url(#SVGID_00000121250643105414135630000001320564322626720924_);">
									<path class="st6" d="M271.19,48.7c-0.18,0-0.34-0.05-0.5-0.13l-1.58-0.94c-0.24-0.13-0.12-0.18-0.05-0.2
										c0.32-0.11,0.38-0.13,0.71-0.32c0.04-0.02,0.08-0.01,0.12,0.01l1.21,0.72c0.05,0.02,0.11,0.02,0.14,0l4.74-2.74
										c0.05-0.02,0.07-0.07,0.07-0.13v-5.48c0-0.06-0.02-0.11-0.07-0.13l-4.74-2.73c-0.05-0.02-0.11-0.02-0.14,0l-4.74,2.73
										c-0.05,0.02-0.07,0.08-0.07,0.13v5.48c0,0.05,0.02,0.11,0.07,0.13l1.29,0.75c0.7,0.36,1.14-0.06,1.14-0.48v-5.4
										c0-0.07,0.06-0.14,0.14-0.14h0.61c0.07,0,0.14,0.06,0.14,0.14v5.4c0,0.94-0.51,1.48-1.4,1.48c-0.27,0-0.49,0-1.09-0.3
										l-1.25-0.71c-0.31-0.18-0.5-0.51-0.5-0.87V39.5c0-0.36,0.19-0.69,0.5-0.87l4.74-2.74c0.3-0.17,0.7-0.17,1,0l4.74,2.74
										c0.31,0.18,0.5,0.51,0.5,0.87v5.48c0,0.36-0.19,0.69-0.5,0.87l-4.74,2.74C271.55,48.65,271.37,48.7,271.19,48.7z"/>
									<path class="st6" d="M272.66,44.93c-2.08,0-2.51-0.95-2.51-1.76c0-0.07,0.06-0.14,0.14-0.14h0.62
										c0.07,0,0.13,0.05,0.13,0.12c0.1,0.63,0.37,0.94,1.63,0.94c1,0,1.43-0.23,1.43-0.76c0-0.31-0.12-0.53-1.67-0.69
										c-1.29-0.13-2.1-0.42-2.1-1.45c0-0.96,0.81-1.53,2.16-1.53c1.52,0,2.27,0.52,2.36,1.66c0,0.04-0.01,0.07-0.04,0.11
										c-0.02,0.02-0.06,0.05-0.1,0.05h-0.63c-0.06,0-0.12-0.05-0.13-0.11c-0.14-0.65-0.51-0.87-1.48-0.87
										c-1.09,0-1.22,0.38-1.22,0.67c0,0.34,0.15,0.45,1.63,0.64c1.46,0.19,2.15,0.46,2.15,1.48
										C275.03,44.34,274.16,44.93,272.66,44.93z"/>
									<path class="st6" d="M279.5,39.18c0,0.5-0.42,0.91-0.91,0.91c-0.5,0-0.91-0.4-0.91-0.91c0-0.52,0.43-0.91,0.91-0.91
										C279.08,38.27,279.5,38.67,279.5,39.18z M277.82,39.18c0,0.43,0.34,0.77,0.76,0.77c0.43,0,0.77-0.36,0.77-0.77
										c0-0.43-0.34-0.76-0.77-0.76C278.17,38.42,277.82,38.75,277.82,39.18z M278.24,38.67h0.36c0.12,0,0.36,0,0.36,0.27
										c0,0.19-0.12,0.23-0.19,0.25c0.14,0.01,0.15,0.11,0.17,0.24c0.01,0.08,0.02,0.23,0.05,0.27h-0.21
										c0-0.05-0.04-0.31-0.04-0.32c-0.01-0.06-0.04-0.08-0.11-0.08h-0.18v0.42h-0.2V38.67z M278.43,39.12h0.15
										c0.13,0,0.15-0.1,0.15-0.14c0-0.14-0.1-0.14-0.15-0.14h-0.17v0.28H278.43z"/>
									<path class="st7" d="M256.5,27.28c0-0.21-0.12-0.42-0.31-0.52l-5.02-2.91c-0.08-0.05-0.18-0.07-0.27-0.08
										c-0.01,0-0.05,0-0.05,0c-0.1,0-0.19,0.04-0.27,0.08l-5.03,2.9c-0.19,0.11-0.31,0.31-0.31,0.53l0.01,7.79
										c0,0.11,0.06,0.21,0.15,0.26c0.1,0.06,0.21,0.06,0.3,0l2.99-1.71c0.19-0.11,0.31-0.31,0.31-0.52v-3.65
										c0-0.21,0.12-0.42,0.31-0.52l1.27-0.74c0.09-0.06,0.2-0.08,0.31-0.08c0.11,0,0.21,0.02,0.3,0.08l1.27,0.74
										c0.19,0.11,0.31,0.31,0.31,0.52v3.65c0,0.21,0.12,0.42,0.31,0.52l2.97,1.71c0.1,0.06,0.21,0.06,0.31,0
										c0.1-0.05,0.15-0.15,0.15-0.26V27.28z"/>
									<path class="st7" d="M280.7,16.56c-0.1-0.05-0.21-0.05-0.3,0c-0.1,0.06-0.15,0.15-0.15,0.26v7.72
										c0,0.07-0.04,0.14-0.11,0.19c-0.07,0.04-0.14,0.04-0.21,0L278.67,24c-0.19-0.11-0.42-0.11-0.61,0l-5.03,2.91
										c-0.19,0.11-0.31,0.31-0.31,0.52v5.81c0,0.21,0.12,0.42,0.31,0.52l5.03,2.91c0.19,0.11,0.42,0.11,0.61,0l5.03-2.91
										c0.19-0.11,0.31-0.31,0.31-0.52V18.76c0-0.23-0.12-0.43-0.31-0.53L280.7,16.56z M280.24,31.33c0,0.06-0.02,0.11-0.07,0.13
										l-1.72,1c-0.05,0.02-0.11,0.02-0.15,0l-1.72-1c-0.05-0.02-0.07-0.08-0.07-0.13v-2c0-0.06,0.02-0.11,0.07-0.13l1.72-1
										c0.05-0.02,0.11-0.02,0.15,0l1.72,1c0.05,0.02,0.07,0.08,0.07,0.13V31.33z"/>
									<path class="st7" d="M297.46,29.29c0.19-0.11,0.3-0.31,0.3-0.52v-1.41c0-0.21-0.12-0.42-0.3-0.52l-5-2.9
										c-0.19-0.11-0.42-0.11-0.61,0l-5.03,2.91c-0.19,0.11-0.31,0.31-0.31,0.52v5.81c0,0.21,0.12,0.42,0.31,0.52l5,2.85
										c0.19,0.11,0.42,0.11,0.59,0l3.03-1.69c0.1-0.05,0.15-0.15,0.15-0.26c0-0.11-0.06-0.21-0.15-0.26l-5.06-2.91
										c-0.1-0.06-0.15-0.15-0.15-0.26v-1.82c0-0.11,0.06-0.21,0.15-0.26l1.58-0.9c0.1-0.06,0.21-0.06,0.31,0l1.58,0.9
										c0.1,0.06,0.15,0.15,0.15,0.26v1.43c0,0.11,0.06,0.21,0.15,0.26c0.1,0.06,0.21,0.06,0.31,0L297.46,29.29z"/>
									<path class="st8" d="M292.08,29.01c0.04-0.02,0.08-0.02,0.12,0l0.96,0.56c0.04,0.02,0.06,0.06,0.06,0.11v1.12
										c0,0.05-0.02,0.08-0.06,0.11l-0.96,0.56c-0.04,0.02-0.08,0.02-0.12,0l-0.96-0.56c-0.04-0.02-0.06-0.06-0.06-0.11v-1.12
										c0-0.05,0.02-0.08,0.06-0.11L292.08,29.01z"/>
									
										<linearGradient id="SVGID_00000150100840954166769510000001931403946859040143_" gradientUnits="userSpaceOnUse" x1="-168.2086" y1="-172.852" x2="-172.7287" y2="-182.0728" gradientTransform="matrix(1 0 0 -1.0002 434.8622 -146.7914)">
										<stop  offset="0" style="stop-color:#448840"/>
										<stop  offset="0.3288" style="stop-color:#428C3E"/>
										<stop  offset="0.6352" style="stop-color:#439637"/>
										<stop  offset="0.9319" style="stop-color:#41AA34"/>
										<stop  offset="1" style="stop-color:#46AC34"/>
									</linearGradient>
									
										<path style="fill-rule:evenodd;clip-rule:evenodd;fill:url(#SVGID_00000150100840954166769510000001931403946859040143_);" d="
										M264.92,23.95c-0.19-0.11-0.42-0.11-0.61,0l-5,2.89c-0.19,0.11-0.3,0.31-0.3,0.52v5.78c0,0.21,0.12,0.42,0.3,0.52l5,2.89
										c0.19,0.11,0.42,0.11,0.61,0l5-2.89c0.19-0.11,0.3-0.31,0.3-0.52v-5.78c0-0.21-0.12-0.42-0.3-0.52L264.92,23.95z"/>
									<g>
										<defs>
											<path id="SVGID_00000014632189997280087810000005935026995400113840_" d="M264.92,23.95c-0.19-0.11-0.42-0.11-0.61,0
												l-5,2.89c-0.19,0.11-0.3,0.31-0.3,0.52v5.78c0,0.21,0.12,0.42,0.3,0.52l5,2.89c0.19,0.11,0.42,0.11,0.61,0l5-2.89
												c0.19-0.11,0.3-0.31,0.3-0.52v-5.78c0-0.21-0.12-0.42-0.3-0.52L264.92,23.95z"/>
										</defs>
										<clipPath id="SVGID_00000160888630543223219400000014114171512491256735_">
											<use xlink:href="#SVGID_00000014632189997280087810000005935026995400113840_"  style="overflow:visible;"/>
										</clipPath>
										<g style="clip-path:url(#SVGID_00000160888630543223219400000014114171512491256735_);">
											
												<linearGradient id="SVGID_00000147936512967775002460000014567389383333691291_" gradientUnits="userSpaceOnUse" x1="-171.0053" y1="-177.6755" x2="-158.3224" y2="-168.3047" gradientTransform="matrix(1 0 0 -1.0002 434.8622 -146.7914)">
												<stop  offset="0" style="stop-color:#448840"/>
												<stop  offset="0.1376" style="stop-color:#448840"/>
												<stop  offset="0.4032" style="stop-color:#54A043"/>
												<stop  offset="0.7136" style="stop-color:#6AB64A"/>
												<stop  offset="0.9081" style="stop-color:#72B84D"/>
												<stop  offset="1" style="stop-color:#72B84D"/>
											</linearGradient>
											<path style="fill:url(#SVGID_00000147936512967775002460000014567389383333691291_);" d="M269.93,26.84l-5.02-2.89
												c-0.05-0.02-0.11-0.05-0.15-0.06l-5.63,9.63c0.05,0.06,0.11,0.11,0.17,0.14l5.02,2.89c0.14,0.08,0.31,0.11,0.46,0.06
												l5.28-9.67C270.03,26.9,269.98,26.86,269.93,26.84z"/>
										</g>
									</g>
									<g>
										<defs>
											<path id="SVGID_00000152976612187068953040000010072758664330862497_" d="M264.92,23.95c-0.19-0.11-0.42-0.11-0.61,0
												l-5,2.89c-0.19,0.11-0.3,0.31-0.3,0.52v5.78c0,0.21,0.12,0.42,0.3,0.52l5,2.89c0.19,0.11,0.42,0.11,0.61,0l5-2.89
												c0.19-0.11,0.3-0.31,0.3-0.52v-5.78c0-0.21-0.12-0.42-0.3-0.52L264.92,23.95z"/>
										</defs>
										<clipPath id="SVGID_00000175298560140270125370000009578316451741802627_">
											<use xlink:href="#SVGID_00000152976612187068953040000010072758664330862497_"  style="overflow:visible;"/>
										</clipPath>
										<g style="clip-path:url(#SVGID_00000175298560140270125370000009578316451741802627_);">
											
												<linearGradient id="SVGID_00000102518144487177688520000014010954738031513507_" gradientUnits="userSpaceOnUse" x1="-176.0256" y1="-169.6645" x2="-164.4579" y2="-169.6645" gradientTransform="matrix(1 0 0 -1.0002 434.8622 -146.7914)">
												<stop  offset="0" style="stop-color:#72B84D"/>
												<stop  offset="0.0919" style="stop-color:#72B84D"/>
												<stop  offset="0.2864" style="stop-color:#6AB64A"/>
												<stop  offset="0.5968" style="stop-color:#54A043"/>
												<stop  offset="0.8624" style="stop-color:#448840"/>
												<stop  offset="1" style="stop-color:#448840"/>
											</linearGradient>
											<path style="fill:url(#SVGID_00000102518144487177688520000014010954738031513507_);" d="M264.15,22.9l-0.07,0.04h0.1
												L264.15,22.9z"/>
											
												<linearGradient id="SVGID_00000181783084586458136670000001245028383091303086_" gradientUnits="userSpaceOnUse" x1="-176.0256" y1="-177.0035" x2="-164.4579" y2="-177.0035" gradientTransform="matrix(1 0 0 -1.0002 434.8622 -146.7914)">
												<stop  offset="0" style="stop-color:#72B84D"/>
												<stop  offset="0.0919" style="stop-color:#72B84D"/>
												<stop  offset="0.2864" style="stop-color:#6AB64A"/>
												<stop  offset="0.5968" style="stop-color:#54A043"/>
												<stop  offset="0.8624" style="stop-color:#448840"/>
												<stop  offset="1" style="stop-color:#448840"/>
											</linearGradient>
											<path style="fill:url(#SVGID_00000181783084586458136670000001245028383091303086_);" d="M269.93,33.67
												c0.14-0.08,0.25-0.23,0.3-0.38l-5.5-9.41c-0.14-0.02-0.3-0.01-0.43,0.07l-4.99,2.87l5.38,9.81
												c0.07-0.01,0.15-0.04,0.23-0.07L269.93,33.67z"/>
											
												<linearGradient id="SVGID_00000003107422981727918720000015019779722519159728_" gradientUnits="userSpaceOnUse" x1="-176.0256" y1="-180.3041" x2="-164.4579" y2="-180.3041" gradientTransform="matrix(1 0 0 -1.0002 434.8622 -146.7914)">
												<stop  offset="0" style="stop-color:#72B84D"/>
												<stop  offset="0.0919" style="stop-color:#72B84D"/>
												<stop  offset="0.2864" style="stop-color:#6AB64A"/>
												<stop  offset="0.5968" style="stop-color:#54A043"/>
												<stop  offset="0.8624" style="stop-color:#448840"/>
												<stop  offset="1" style="stop-color:#448840"/>
											</linearGradient>
											<path style="fill:url(#SVGID_00000003107422981727918720000015019779722519159728_);" d="M270.41,33.58l-0.04-0.06v0.08
												L270.41,33.58z"/>
											
												<linearGradient id="SVGID_00000157280997589520000050000010217489052457358985_" gradientUnits="userSpaceOnUse" x1="-176.0632" y1="-181.7884" x2="-164.4213" y2="-181.7884" gradientTransform="matrix(1 0 0 -1.0002 434.8622 -146.7914)">
												<stop  offset="0" style="stop-color:#72B84D"/>
												<stop  offset="0.0919" style="stop-color:#72B84D"/>
												<stop  offset="0.2864" style="stop-color:#6AB64A"/>
												<stop  offset="0.5968" style="stop-color:#54A043"/>
												<stop  offset="0.8624" style="stop-color:#448840"/>
												<stop  offset="1" style="stop-color:#448840"/>
											</linearGradient>
											<path style="fill:url(#SVGID_00000157280997589520000050000010217489052457358985_);" d="M269.93,33.67l-5.01,2.89
												c-0.07,0.04-0.14,0.06-0.23,0.07l0.12,0.18l5.58-3.22v-0.07l-0.15-0.24C270.21,33.44,270.09,33.59,269.93,33.67z"/>
											
												<linearGradient id="SVGID_00000139269373448253047640000002890413521513428917_" gradientUnits="userSpaceOnUse" x1="-162.7671" y1="-172.573" x2="-169.9013" y2="-187.1268" gradientTransform="matrix(1 0 0 -1.0002 434.8622 -146.7914)">
												<stop  offset="0" style="stop-color:#448840"/>
												<stop  offset="0.3288" style="stop-color:#428C3E"/>
												<stop  offset="0.6352" style="stop-color:#439637"/>
												<stop  offset="0.9319" style="stop-color:#41AA34"/>
												<stop  offset="1" style="stop-color:#46AC34"/>
											</linearGradient>
											<path style="fill:url(#SVGID_00000139269373448253047640000002890413521513428917_);" d="M269.93,33.67l-5.01,2.89
												c-0.07,0.04-0.14,0.06-0.23,0.07l0.12,0.18l5.58-3.22v-0.07l-0.15-0.24C270.21,33.44,270.09,33.59,269.93,33.67z"/>
										</g>
									</g>
									<path class="st18" d="M246.28,58.85c0.13,0.5,0.33,0.94,0.61,1.31c0.27,0.37,0.62,0.67,1.04,0.88
										c0.43,0.21,0.95,0.32,1.57,0.32c0.91,0,1.67-0.24,2.28-0.72c0.61-0.48,0.97-1.2,1.13-2.16h0.33
										c-0.12,1.01-0.52,1.81-1.2,2.36c-0.68,0.56-1.51,0.83-2.51,0.83c-0.68,0.01-1.26-0.1-1.73-0.32s-0.87-0.55-1.18-0.95
										c-0.31-0.42-0.53-0.89-0.68-1.45c-0.14-0.56-0.23-1.16-0.23-1.81c0-0.72,0.11-1.37,0.32-1.92c0.21-0.56,0.5-1.05,0.84-1.43
										c0.34-0.39,0.76-0.69,1.22-0.89c0.46-0.2,0.94-0.31,1.42-0.31c0.68,0,1.26,0.13,1.75,0.39c0.49,0.26,0.89,0.61,1.2,1.03
										c0.31,0.43,0.53,0.91,0.68,1.47c0.14,0.56,0.2,1.13,0.18,1.72h-7.27C246.08,57.81,246.15,58.35,246.28,58.85z
										 M252.77,55.37c-0.14-0.48-0.37-0.9-0.65-1.26c-0.28-0.36-0.64-0.64-1.07-0.86c-0.43-0.21-0.93-0.31-1.48-0.31
										c-0.48,0-0.91,0.09-1.33,0.27c-0.42,0.18-0.77,0.44-1.08,0.78c-0.31,0.34-0.56,0.76-0.75,1.25
										c-0.19,0.49-0.31,1.03-0.33,1.64h6.93C253,56.36,252.93,55.85,252.77,55.37z"/>
									<path class="st18" d="M260.59,52.81L257.4,57l3.48,4.5h-0.43l-3.27-4.24l-3.27,4.24h-0.4l3.47-4.5l-3.16-4.19h0.44
										l2.92,3.94l2.99-3.94H260.59z"/>
									<path class="st18" d="M261.57,64.48V52.81h0.33v2.43h0.04c0.11-0.38,0.27-0.74,0.49-1.06c0.21-0.32,0.46-0.61,0.76-0.83
										c0.3-0.24,0.63-0.42,1.01-0.55c0.38-0.13,0.78-0.19,1.22-0.19c0.57,0,1.09,0.12,1.54,0.33c0.45,0.23,0.84,0.55,1.16,0.95
										c0.32,0.4,0.57,0.89,0.74,1.44c0.17,0.56,0.25,1.15,0.25,1.81c0,0.61-0.08,1.19-0.25,1.75c-0.17,0.56-0.4,1.03-0.71,1.45
										s-0.7,0.75-1.16,0.99c-0.46,0.24-1,0.37-1.59,0.37c-0.93,0-1.69-0.24-2.28-0.72c-0.59-0.48-1-1.12-1.2-1.9h-0.04v5.42
										H261.57z M266.95,60.99c0.43-0.25,0.77-0.58,1.04-0.99c0.27-0.4,0.48-0.86,0.61-1.35c0.13-0.5,0.19-1.01,0.19-1.51
										c0-0.56-0.07-1.09-0.21-1.6c-0.14-0.5-0.34-0.95-0.63-1.33c-0.27-0.39-0.63-0.7-1.05-0.93c-0.43-0.23-0.91-0.33-1.48-0.33
										c-0.56,0-1.04,0.12-1.48,0.33c-0.44,0.23-0.81,0.53-1.1,0.91c-0.3,0.38-0.52,0.83-0.69,1.33c-0.15,0.51-0.24,1.05-0.24,1.6
										c0,1.37,0.32,2.41,0.96,3.14c0.64,0.72,1.5,1.09,2.55,1.09C266.03,61.37,266.54,61.24,266.95,60.99z"/>
									<path class="st18" d="M270.66,61.5v-8.69h0.33v2.15h0.04c0.08-0.33,0.2-0.63,0.37-0.93c0.17-0.28,0.39-0.53,0.68-0.75
										c0.29-0.21,0.62-0.38,1.01-0.51c0.39-0.12,0.84-0.18,1.37-0.17v0.33c-0.59-0.04-1.12,0.05-1.54,0.25
										c-0.44,0.2-0.8,0.46-1.07,0.81c-0.28,0.34-0.49,0.74-0.63,1.19c-0.13,0.45-0.2,0.91-0.2,1.39v4.92h-0.34V61.5z"/>
									<path class="st18" d="M275.07,58.85c0.13,0.5,0.33,0.94,0.61,1.31c0.27,0.37,0.62,0.67,1.04,0.88
										c0.43,0.21,0.95,0.32,1.57,0.32c0.91,0,1.67-0.24,2.28-0.72c0.61-0.48,0.97-1.2,1.13-2.16h0.33
										c-0.12,1.01-0.52,1.81-1.2,2.36c-0.68,0.56-1.51,0.83-2.51,0.83c-0.68,0.01-1.26-0.1-1.73-0.32
										c-0.47-0.23-0.87-0.55-1.18-0.95c-0.31-0.42-0.53-0.89-0.68-1.45c-0.14-0.56-0.23-1.16-0.23-1.81
										c0-0.72,0.11-1.37,0.32-1.92c0.21-0.56,0.5-1.05,0.84-1.43c0.34-0.39,0.76-0.69,1.22-0.89c0.46-0.2,0.94-0.31,1.43-0.31
										c0.68,0,1.26,0.13,1.75,0.39c0.49,0.26,0.89,0.61,1.2,1.03c0.31,0.43,0.53,0.91,0.68,1.47c0.14,0.56,0.2,1.13,0.18,1.72
										h-7.27C274.87,57.81,274.94,58.35,275.07,58.85z M281.58,55.37c-0.14-0.48-0.37-0.9-0.65-1.26
										c-0.28-0.36-0.64-0.64-1.07-0.86c-0.43-0.21-0.93-0.31-1.48-0.31c-0.47,0-0.91,0.09-1.33,0.27
										c-0.42,0.18-0.77,0.44-1.08,0.78c-0.31,0.34-0.56,0.76-0.75,1.25c-0.19,0.49-0.31,1.03-0.33,1.64h6.93
										C281.8,56.36,281.72,55.85,281.58,55.37z"/>
									<path class="st18" d="M288.94,54.27c-0.13-0.31-0.33-0.56-0.57-0.75c-0.25-0.2-0.55-0.34-0.89-0.43
										c-0.34-0.09-0.72-0.13-1.14-0.13c-0.61,0-1.09,0.08-1.44,0.25c-0.34,0.17-0.61,0.34-0.78,0.56
										c-0.17,0.21-0.27,0.42-0.32,0.62s-0.07,0.34-0.07,0.43c0,0.43,0.08,0.76,0.26,0.99c0.18,0.23,0.4,0.4,0.7,0.53
										c0.31,0.12,0.63,0.23,0.99,0.32c0.36,0.09,0.77,0.2,1.25,0.32c0.33,0.1,0.68,0.18,1.01,0.27c0.33,0.1,0.63,0.23,0.89,0.39
										c0.26,0.17,0.47,0.38,0.64,0.64c0.17,0.26,0.25,0.59,0.25,1.01c0,0.44-0.1,0.81-0.27,1.12c-0.19,0.31-0.43,0.56-0.72,0.75
										c-0.3,0.19-0.64,0.33-1.01,0.42c-0.38,0.08-0.75,0.13-1.13,0.13c-1.16,0-2.04-0.25-2.62-0.76
										c-0.58-0.51-0.89-1.31-0.89-2.4h0.33c0,0.99,0.27,1.7,0.82,2.16c0.55,0.45,1.33,0.69,2.36,0.69c0.32,0,0.64-0.04,0.97-0.11
										c0.33-0.07,0.63-0.19,0.9-0.36c0.27-0.17,0.5-0.38,0.66-0.63c0.18-0.26,0.26-0.57,0.26-0.95c0-0.38-0.08-0.69-0.26-0.93
										c-0.18-0.24-0.4-0.43-0.68-0.58c-0.27-0.15-0.59-0.27-0.95-0.37c-0.36-0.1-0.72-0.18-1.1-0.27
										c-0.42-0.11-0.78-0.2-1.1-0.28c-0.32-0.1-0.59-0.19-0.84-0.31c-0.36-0.15-0.63-0.38-0.8-0.67
										c-0.17-0.29-0.25-0.67-0.25-1.13c0-0.24,0.05-0.49,0.15-0.75c0.11-0.26,0.27-0.5,0.51-0.71c0.24-0.21,0.55-0.39,0.91-0.52
										c0.37-0.13,0.83-0.2,1.37-0.2c0.97,0,1.73,0.23,2.3,0.67c0.56,0.44,0.84,1.14,0.84,2.11h-0.33
										C289.15,54.94,289.09,54.56,288.94,54.27z"/>
									<path class="st18" d="M296.78,54.27c-0.13-0.31-0.33-0.56-0.57-0.75c-0.25-0.2-0.55-0.34-0.89-0.43
										c-0.34-0.09-0.72-0.13-1.14-0.13c-0.61,0-1.09,0.08-1.44,0.25c-0.34,0.17-0.61,0.34-0.78,0.56
										c-0.17,0.21-0.27,0.42-0.32,0.62s-0.07,0.34-0.07,0.43c0,0.43,0.08,0.76,0.26,0.99c0.18,0.23,0.4,0.4,0.7,0.53
										c0.31,0.12,0.63,0.23,0.99,0.32c0.36,0.09,0.77,0.2,1.25,0.32c0.33,0.1,0.68,0.18,1.01,0.27c0.33,0.1,0.63,0.23,0.89,0.39
										c0.26,0.17,0.47,0.38,0.64,0.64c0.17,0.26,0.25,0.59,0.25,1.01c0,0.44-0.1,0.81-0.27,1.12c-0.19,0.31-0.43,0.56-0.72,0.75
										c-0.3,0.19-0.64,0.33-1.01,0.42c-0.38,0.08-0.75,0.13-1.13,0.13c-1.16,0-2.04-0.25-2.62-0.76
										c-0.58-0.51-0.89-1.31-0.89-2.4h0.33c0,0.99,0.27,1.7,0.82,2.16c0.55,0.45,1.33,0.69,2.36,0.69c0.32,0,0.64-0.04,0.97-0.11
										c0.33-0.07,0.63-0.19,0.9-0.36c0.27-0.17,0.5-0.38,0.66-0.63c0.18-0.26,0.26-0.57,0.26-0.95c0-0.38-0.08-0.69-0.26-0.93
										c-0.18-0.24-0.4-0.43-0.68-0.58c-0.27-0.15-0.59-0.27-0.95-0.37c-0.36-0.1-0.72-0.18-1.1-0.27
										c-0.42-0.11-0.78-0.2-1.1-0.28c-0.32-0.1-0.59-0.19-0.84-0.31c-0.36-0.15-0.63-0.38-0.8-0.67
										c-0.17-0.29-0.25-0.67-0.25-1.13c0-0.24,0.05-0.49,0.15-0.75c0.11-0.26,0.27-0.5,0.51-0.71c0.24-0.21,0.55-0.39,0.91-0.52
										c0.37-0.13,0.83-0.2,1.37-0.2c0.97,0,1.73,0.23,2.3,0.67c0.56,0.44,0.84,1.14,0.84,2.11h-0.33
										C296.98,54.94,296.91,54.56,296.78,54.27z"/>
								</g>
							</g>
						</g>
					</g>
				</g>
			</g>
		</g>
	</g>
</g>
</svg>
