<?xml version="1.0" encoding="utf-8"?>
<!-- Generator: Adobe Illustrator 26.0.2, SVG Export Plug-In . SVG Version: 6.00 Build 0)  -->
<svg version="1.1" id="Calque_1" xmlns="http://www.w3.org/2000/svg" xmlns:xlink="http://www.w3.org/1999/xlink" x="0px" y="0px"
	 viewBox="0 0 81 81" style="enable-background:new 0 0 81 81;" xml:space="preserve">
<style type="text/css">
	.st0{fill:#4CB37D;}
	.st1{fill:#765FA6;}
	.st2{fill:#E95025;}
	.st3{fill:#EE7265;}
	.st4{fill:#46B7EA;}
</style>
<g>
	<desc>Created using Figma</desc>
	<path id="path0_fill_00000077319163798858863780000012207416708317704880_" class="st0" d="M29.19,81c7.45,0,13.5-6.05,13.5-13.5
		V54h-13.5c-7.45,0-13.5,6.05-13.5,13.5S21.74,81,29.19,81z"/>
	<path id="path1_fill_00000150803405774417116490000009951753744418391433_" class="st1" d="M15.69,40.5c0-7.45,6.05-13.5,13.5-13.5
		h13.5v27h-13.5C21.74,54,15.69,47.95,15.69,40.5z"/>
	<path id="path1_fill_00000008111297392314317610000006365603851331071379_" class="st2" d="M15.69,13.5c0-7.45,6.05-13.5,13.5-13.5
		h13.5v27h-13.5C21.74,27,15.69,20.95,15.69,13.5z"/>
	<path id="path2_fill_00000035516672915858706770000014568207859753778314_" class="st3" d="M42.69,0h13.5
		c7.45,0,13.5,6.05,13.5,13.5S63.64,27,56.19,27h-13.5V0z"/>
	<path id="path3_fill_00000140722331434844572290000015319058110998959523_" class="st4" d="M69.69,40.5c0,7.45-6.05,13.5-13.5,13.5
		s-13.5-6.05-13.5-13.5S48.74,27,56.19,27S69.69,33.05,69.69,40.5z"/>
</g>
</svg>
