<svg id="Calque_1" data-name="Calque 1" xmlns="http://www.w3.org/2000/svg" viewBox="0 0 172.27 128.42"><defs><style>.cls-1{fill:#a15b30;}</style></defs><path class="cls-1" d="M287.73,376.6H269.79l-39.07-88.11L191.36,376.6H173.28l57.66-128.41Z" transform="translate(-173.28 -248.19)"/><path class="cls-1" d="M345.54,252.19h-27q-20.11,0-32.76,10t-12.65,25.62a33,33,0,0,0,8.18,22.07q8.19,9.57,25.52,13.47L270.74,376.6h19.49l34.51-51.17h3.81V376.6h17Zm-17,15v43.36q-37.59.78-37.6-21.78,0-7.9,4.4-12.94A22.07,22.07,0,0,1,307.07,269Q314.39,267.22,328.55,267.23Z" transform="translate(-173.28 -248.19)"/></svg>